<svg xmlns="http://www.w3.org/2000/svg" width="166" height="30"><g><path d="M 0 0 L 166 0 L 166 30 L 0 30 Z" fill="transparent"></path><path d="M 93.17 22.143 L 96.72 22.143 L 96.72 8.952 L 93.17 8.952 Z M 93.17 6.894 L 96.72 6.894 L 96.72 3.757 L 93.17 3.757 Z M 99.008 26.463 L 102.559 26.463 L 102.559 20.65 L 102.611 20.65 C 103.368 21.782 104.595 22.528 106.474 22.528 C 109.921 22.528 112.271 19.828 112.271 15.558 C 112.271 11.445 109.999 8.59 106.449 8.59 C 104.621 8.59 103.368 9.439 102.506 10.596 L 102.428 10.596 L 102.428 8.951 L 99.008 8.951 Z M 105.718 19.623 C 103.603 19.623 102.481 18.054 102.481 15.663 C 102.481 13.297 103.368 11.42 105.587 11.42 C 107.78 11.42 108.668 13.168 108.668 15.663 C 108.668 18.157 107.519 19.623 105.718 19.623 Z M 119.353 22.529 C 122.695 22.529 124.993 20.934 124.993 18.286 C 124.993 15.2 122.513 14.583 120.267 14.12 C 118.361 13.734 116.586 13.631 116.586 12.5 C 116.586 11.549 117.5 11.034 118.883 11.034 C 120.398 11.034 121.312 11.548 121.468 12.963 L 124.679 12.963 C 124.419 10.314 122.46 8.591 118.936 8.591 C 115.881 8.591 113.479 9.954 113.479 12.809 C 113.479 15.689 115.829 16.331 118.231 16.794 C 120.058 17.154 121.755 17.283 121.755 18.543 C 121.755 19.468 120.868 20.06 119.301 20.06 C 117.708 20.06 116.612 19.391 116.377 17.874 L 113.088 17.874 C 113.297 20.677 115.464 22.529 119.353 22.529 Z M 138.473 22.143 L 138.473 8.95 L 134.922 8.95 L 134.922 16.562 C 134.922 18.31 133.904 19.544 132.233 19.544 C 130.719 19.544 130.015 18.696 130.015 17.154 L 130.015 8.95 L 126.49 8.95 L 126.49 17.744 C 126.49 20.624 128.16 22.502 131.137 22.502 C 133.017 22.502 134.061 21.807 134.975 20.599 L 135.053 20.599 L 135.053 22.142 L 138.473 22.142 Z M 140.77 22.143 L 144.32 22.143 L 144.32 14.48 C 144.32 12.731 145.287 11.6 146.723 11.6 C 148.028 11.6 148.785 12.371 148.785 13.863 L 148.785 22.143 L 152.335 22.143 L 152.335 14.48 C 152.335 12.731 153.249 11.6 154.737 11.6 C 156.043 11.6 156.8 12.371 156.8 13.863 L 156.8 22.143 L 160.351 22.143 L 160.351 13.27 C 160.351 10.39 158.758 8.59 155.938 8.59 C 154.241 8.59 152.831 9.465 151.917 10.905 L 151.866 10.905 C 151.213 9.516 149.855 8.59 148.158 8.59 C 146.305 8.59 144.999 9.516 144.268 10.725 L 144.19 10.725 L 144.19 8.95 L 140.77 8.95 L 140.77 22.142 Z M 0.627 22.143 L 4.178 22.143 L 4.178 3.757 L 0.628 3.757 L 0.628 22.143 Z M 12.86 22.529 C 17.011 22.529 19.857 19.494 19.857 15.559 C 19.857 11.626 17.011 8.591 12.86 8.591 C 8.709 8.591 5.863 11.626 5.863 15.56 C 5.863 19.494 8.709 22.529 12.86 22.529 Z M 12.86 19.854 C 10.667 19.854 9.466 18.131 9.466 15.56 C 9.466 12.988 10.667 11.24 12.86 11.24 C 15.027 11.24 16.254 12.988 16.254 15.56 C 16.254 18.131 15.027 19.854 12.86 19.854 Z M 27.407 26.643 C 29.392 26.643 31.115 26.18 32.237 25.151 C 33.229 24.251 33.83 22.991 33.83 21.14 L 33.83 8.95 L 30.41 8.95 L 30.41 10.339 L 30.358 10.339 C 29.548 9.233 28.321 8.59 26.65 8.59 C 23.256 8.59 20.855 11.11 20.855 15.045 C 20.855 19.03 23.779 21.345 26.755 21.345 C 28.452 21.345 29.47 20.676 30.253 19.802 L 30.331 19.802 L 30.331 21.242 C 30.331 23.042 29.366 23.993 27.355 23.993 C 25.71 23.993 24.953 23.35 24.666 22.528 L 21.142 22.528 C 21.507 25.098 23.752 26.642 27.407 26.642 Z M 27.355 18.543 C 25.528 18.543 24.327 17.231 24.327 14.994 C 24.327 12.783 25.527 11.394 27.329 11.394 C 29.47 11.394 30.514 13.04 30.514 14.969 C 30.514 16.923 29.601 18.543 27.355 18.543 Z M 42.46 22.529 C 46.611 22.529 49.457 19.494 49.457 15.559 C 49.457 11.626 46.611 8.591 42.46 8.591 C 38.31 8.591 35.463 11.626 35.463 15.56 C 35.463 19.494 38.309 22.529 42.46 22.529 Z M 42.46 19.854 C 40.267 19.854 39.066 18.131 39.066 15.56 C 39.066 12.988 40.267 11.24 42.46 11.24 C 44.627 11.24 45.854 12.988 45.854 15.56 C 45.854 18.131 44.627 19.854 42.46 19.854 Z M 161.641 6.786 C 161.643 6.5 161.759 6.226 161.963 6.025 C 162.167 5.824 162.443 5.712 162.729 5.714 L 164.904 5.714 C 165.505 5.714 165.992 6.194 165.992 6.786 C 165.987 7.382 165.5 7.861 164.904 7.857 L 162.729 7.857 C 162.133 7.861 161.646 7.382 161.641 6.786 Z" fill="rgb(149,146,142)"></path><path d="M 70.99 0 C 79.4 0 86.22 6.716 86.22 15 C 86.22 23.284 79.4 30 70.99 30 C 62.58 30 55.76 23.284 55.76 15 C 55.76 6.716 62.58 0 70.99 0 Z M 70.44 1.122 C 68.702 1.363 67.048 2.738 65.764 5.038 C 65.373 5.744 65.038 6.48 64.762 7.238 C 66.622 6.786 68.526 6.542 70.44 6.511 Z M 63.475 7.598 C 63.839 6.472 64.285 5.436 64.799 4.515 C 65.436 3.375 66.191 2.391 67.042 1.635 C 62.413 2.959 58.765 6.553 57.42 11.112 C 58.188 10.273 59.188 9.529 60.345 8.902 C 61.344 8.368 62.392 7.932 63.475 7.598 Z M 63.109 8.866 C 62.651 10.696 62.404 12.572 62.372 14.458 L 56.9 14.458 C 57.145 12.746 58.54 11.118 60.876 9.852 C 61.594 9.467 62.341 9.137 63.109 8.866 Z M 63.473 14.458 C 63.518 12.294 63.835 10.263 64.358 8.468 C 66.18 7.952 68.243 7.641 70.44 7.596 L 70.44 9.938 C 69.607 12.018 67.943 13.657 65.85 14.458 Z M 62.372 15.542 L 56.9 15.542 C 57.145 17.253 58.54 18.882 60.876 20.148 C 61.553 20.515 62.301 20.846 63.109 21.134 C 62.651 19.304 62.404 17.428 62.372 15.542 Z M 64.358 21.532 C 63.835 19.738 63.518 17.706 63.473 15.542 L 65.85 15.542 C 67.943 16.343 69.607 17.982 70.44 20.062 L 70.44 22.404 C 68.243 22.359 66.18 22.048 64.358 21.532 Z M 63.475 22.402 C 62.392 22.068 61.344 21.632 60.345 21.098 C 59.188 20.471 58.188 19.727 57.42 18.888 C 58.765 23.448 62.413 27.041 67.042 28.365 C 66.192 27.609 65.436 26.625 64.799 25.485 C 64.258 24.503 63.815 23.47 63.475 22.402 Z M 70.44 28.878 C 68.702 28.637 67.048 27.262 65.764 24.962 C 65.373 24.256 65.038 23.52 64.762 22.762 C 66.508 23.194 68.427 23.449 70.44 23.489 Z M 74.938 28.365 C 75.789 27.609 76.544 26.625 77.181 25.485 C 77.695 24.564 78.141 23.528 78.505 22.402 C 79.588 22.068 80.636 21.632 81.635 21.098 C 82.792 20.471 83.792 19.727 84.56 18.888 C 83.215 23.448 79.567 27.041 74.938 28.365 Z M 77.218 22.762 C 76.925 23.558 76.588 24.295 76.216 24.962 C 74.932 27.262 73.278 28.637 71.541 28.878 L 71.541 23.488 C 73.454 23.457 75.358 23.213 77.218 22.762 Z M 78.871 21.134 C 79.679 20.846 80.427 20.514 81.104 20.148 C 83.44 18.883 84.835 17.253 85.08 15.542 L 79.609 15.542 C 79.569 17.525 79.309 19.414 78.871 21.134 Z M 78.507 15.542 C 78.462 17.706 78.146 19.738 77.622 21.532 C 75.8 22.048 73.737 22.359 71.54 22.404 L 71.54 20.064 C 72.373 17.983 74.037 16.344 76.13 15.542 Z M 79.609 14.458 L 85.079 14.458 C 84.835 12.746 83.439 11.118 81.104 9.852 C 80.386 9.467 79.639 9.137 78.871 8.866 C 79.329 10.696 79.576 12.572 79.609 14.458 Z M 77.622 8.468 C 78.146 10.263 78.462 12.294 78.507 14.458 L 76.131 14.458 C 74.038 13.656 72.374 12.017 71.541 9.936 L 71.541 7.596 C 73.737 7.641 75.8 7.952 77.621 8.468 Z M 78.505 7.598 C 79.588 7.932 80.636 8.368 81.635 8.902 C 82.792 9.529 83.792 10.273 84.56 11.112 C 83.215 6.552 79.567 2.959 74.938 1.635 C 75.789 2.391 76.544 3.375 77.181 4.515 C 77.695 5.436 78.141 6.472 78.505 7.598 Z M 71.54 1.122 C 73.278 1.363 74.932 2.738 76.216 5.038 C 76.589 5.705 76.926 6.442 77.218 7.238 C 75.358 6.786 73.454 6.542 71.54 6.511 Z" fill="rgb(149,146,142)"></path></g></svg>