<svg xmlns="http://www.w3.org/2000/svg" width="102" height="17"><path d="M 8.5 0 L 10.408 5.873 L 16.584 5.873 L 11.588 9.503 L 13.496 15.377 L 8.5 11.747 L 3.504 15.377 L 5.412 9.503 L 0.416 5.873 L 6.592 5.873 Z" fill="rgb(180, 233, 37)"></path><path d="M 29.75 0 L 31.658 5.873 L 37.834 5.873 L 32.838 9.503 L 34.746 15.377 L 29.75 11.747 L 24.754 15.377 L 26.662 9.503 L 21.666 5.873 L 27.842 5.873 Z" fill="rgb(180, 233, 37)"></path><path d="M 51 0 L 52.908 5.873 L 59.084 5.873 L 54.088 9.503 L 55.996 15.377 L 51 11.747 L 46.004 15.377 L 47.912 9.503 L 42.916 5.873 L 49.092 5.873 Z" fill="rgb(180, 233, 37)"></path><path d="M 72.25 0 L 74.158 5.873 L 80.334 5.873 L 75.338 9.503 L 77.246 15.377 L 72.25 11.747 L 67.254 15.377 L 69.162 9.503 L 64.166 5.873 L 70.342 5.873 Z" fill="rgb(180, 233, 37)"></path><path d="M 93.5 0 L 95.408 5.873 L 101.584 5.873 L 96.588 9.503 L 98.496 15.377 L 93.5 11.747 L 88.504 15.377 L 90.412 9.503 L 85.416 5.873 L 91.592 5.873 Z" fill="rgb(180, 233, 37)"></path></svg>